<svg version="1.1" id="Layer_1" xmlns="http://www.w3.org/2000/svg" xmlns:xlink="http://www.w3.org/1999/xlink" x="0px" y="0px"
	 width="100%" viewBox="0 0 182 182" enable-background="new 0 0 182 182" xml:space="preserve">
<path fill="#069C54" opacity="1.000000" stroke="none" 
	d="
M124.000000,183.000000 
	C82.666672,183.000000 41.833340,183.000000 1.000005,183.000000 
	C1.000004,122.333336 1.000004,61.666679 1.000002,1.000014 
	C61.666656,1.000009 122.333313,1.000009 182.999969,1.000005 
	C182.999985,61.666653 182.999985,122.333305 183.000000,182.999969 
	C163.500000,183.000000 144.000000,183.000000 124.000000,183.000000 
M105.026459,155.386475 
	C110.373787,152.136353 116.276588,152.015991 122.260513,152.302383 
	C126.240494,152.492874 129.097733,151.184433 130.964691,147.230927 
	C133.777893,141.273590 138.003036,136.719666 144.728806,134.646347 
	C149.592743,133.146957 152.539581,128.979828 151.912704,124.060921 
	C150.993011,116.844177 154.610886,111.702835 158.387650,106.633713 
	C160.965576,103.173637 160.930618,99.897018 159.256638,96.524612 
	C156.334961,90.638512 155.201904,84.220421 156.653931,78.178131 
	C158.134903,72.015511 155.340668,68.476524 151.271652,65.860718 
	C146.272842,62.647190 144.106033,58.181686 142.206726,52.948505 
	C140.731918,48.884937 138.911148,44.308949 133.309738,44.210922 
	C125.921989,44.081638 120.222839,40.470093 115.491783,35.328632 
	C112.168678,31.717251 108.876335,31.190678 104.483360,33.049274 
	C98.845642,35.434509 93.116608,36.282166 87.078468,33.592846 
	C82.193268,31.417028 77.687714,32.353653 74.049416,36.856987 
	C70.631889,41.087078 66.189888,43.836960 60.555637,44.280556 
	C53.145294,44.863991 49.852818,49.254967 47.925812,56.213238 
	C46.820019,60.206150 43.778721,64.259193 40.501190,66.921829 
	C34.876122,71.491608 33.573147,74.815727 35.072956,81.695686 
	C35.883167,85.412300 35.654495,89.991959 34.167770,93.437103 
	C31.281183,100.126114 31.114861,105.499550 35.977802,111.560455 
	C38.940331,115.252792 41.058678,120.494583 41.398502,125.196350 
	C41.814819,130.956467 44.224087,133.906509 49.059158,135.912292 
	C54.617851,138.218246 59.367683,141.353333 62.040806,147.208328 
	C63.721436,150.889435 66.843567,152.798965 71.329666,152.380707 
	C77.608818,151.795303 83.825928,152.108444 89.338120,155.900604 
	C94.335167,159.338379 99.408386,160.716324 105.026459,155.386475 
z"/>
<path fill="#FBFEFD" opacity="1.000000" stroke="none" 
	d="
M104.733353,155.641998 
	C99.408386,160.716324 94.335167,159.338379 89.338120,155.900604 
	C83.825928,152.108444 77.608818,151.795303 71.329666,152.380707 
	C66.843567,152.798965 63.721436,150.889435 62.040806,147.208328 
	C59.367683,141.353333 54.617851,138.218246 49.059158,135.912292 
	C44.224087,133.906509 41.814819,130.956467 41.398502,125.196350 
	C41.058678,120.494583 38.940331,115.252792 35.977802,111.560455 
	C31.114861,105.499550 31.281183,100.126114 34.167770,93.437103 
	C35.654495,89.991959 35.883167,85.412300 35.072956,81.695686 
	C33.573147,74.815727 34.876122,71.491608 40.501190,66.921829 
	C43.778721,64.259193 46.820019,60.206150 47.925812,56.213238 
	C49.852818,49.254967 53.145294,44.863991 60.555637,44.280556 
	C66.189888,43.836960 70.631889,41.087078 74.049416,36.856987 
	C77.687714,32.353653 82.193268,31.417028 87.078468,33.592846 
	C93.116608,36.282166 98.845642,35.434509 104.483360,33.049274 
	C108.876335,31.190678 112.168678,31.717251 115.491783,35.328632 
	C120.222839,40.470093 125.921989,44.081638 133.309738,44.210922 
	C138.911148,44.308949 140.731918,48.884937 142.206726,52.948505 
	C144.106033,58.181686 146.272842,62.647190 151.271652,65.860718 
	C155.340668,68.476524 158.134903,72.015511 156.653931,78.178131 
	C155.201904,84.220421 156.334961,90.638512 159.256638,96.524612 
	C160.930618,99.897018 160.965576,103.173637 158.387650,106.633713 
	C154.610886,111.702835 150.993011,116.844177 151.912704,124.060921 
	C152.539581,128.979828 149.592743,133.146957 144.728806,134.646347 
	C138.003036,136.719666 133.777893,141.273590 130.964691,147.230927 
	C129.097733,151.184433 126.240494,152.492874 122.260513,152.302383 
	C116.276588,152.015991 110.373787,152.136353 104.733353,155.641998 
M79.452118,113.072441 
	C80.131058,113.801743 80.784821,114.556526 81.492996,115.256233 
	C86.301064,120.006706 86.288910,119.986931 91.103523,115.220406 
	C99.822746,106.588280 108.579102,97.993614 117.283478,89.346588 
	C119.582146,87.063065 121.747520,84.645378 123.901382,82.366264 
	C119.636658,77.078049 119.393188,77.056305 115.221222,81.182686 
	C106.845993,89.466385 98.392860,97.673721 90.145226,106.082603 
	C87.483505,108.796349 85.561653,109.273354 82.863762,106.148026 
	C80.052315,102.891151 76.792984,100.015213 73.673225,97.031525 
	C69.259125,92.809959 68.365334,93.016037 65.312874,98.793282 
	C69.846436,103.387695 74.384346,107.986504 79.452118,113.072441 
z"/>
<path fill="#1CCA8F" opacity="1.000000" stroke="none" 
	d="
M79.187187,112.828873 
	C74.384346,107.986504 69.846436,103.387695 65.312874,98.793282 
	C68.365334,93.016037 69.259125,92.809959 73.673225,97.031525 
	C76.792984,100.015213 80.052315,102.891151 82.863762,106.148026 
	C85.561653,109.273354 87.483505,108.796349 90.145226,106.082603 
	C98.392860,97.673721 106.845993,89.466385 115.221222,81.182686 
	C119.393188,77.056305 119.636658,77.078049 123.901382,82.366264 
	C121.747520,84.645378 119.582146,87.063065 117.283478,89.346588 
	C108.579102,97.993614 99.822746,106.588280 91.103523,115.220406 
	C86.288910,119.986931 86.301064,120.006706 81.492996,115.256233 
	C80.784821,114.556526 80.131058,113.801743 79.187187,112.828873 
z"/>
</svg>